<svg width="115" height="135" viewBox="0 0 115 135" fill="none" xmlns="http://www.w3.org/2000/svg">
<path d="M113.487 61.7042C114.413 78.4039 110.588 95.0278 102.782 108.238C94.9747 121.448 83.7635 130.267 71.3988 132.923C59.0342 135.58 46.4316 131.877 36.1213 122.56C25.8111 113.242 18.5565 98.998 15.8142 82.6885C13.0718 66.379 15.0448 49.2113 21.3369 34.632C27.629 20.0528 37.7744 9.14157 49.7362 4.08905C61.698 -0.963481 74.5904 0.21678 85.8251 7.39286C97.0598 14.5689 105.805 27.2095 110.304 42.7767L90.2718 53.4483C87.7237 44.6328 82.7715 37.4745 76.4094 33.4108C70.0474 29.3471 62.7465 28.6787 55.9727 31.5399C49.1989 34.4011 43.4537 40.58 39.8905 48.836C36.3274 57.0921 35.2101 66.814 36.7631 76.0498C38.316 85.2857 42.4242 93.3517 48.2628 98.6283C54.1013 103.905 61.2381 106.002 68.24 104.497C75.242 102.993 81.5907 97.9991 86.0117 90.5182C90.4326 83.0374 92.5983 73.6235 92.074 64.1667L113.487 61.7042Z" fill="#059669"/>
<path d="M0 114.648L99.8194 28.1925L109.754 43.4326L11.9907 128.438L0 114.648Z" fill="#059669"/>
</svg>
